<svg width="1024" height="374" fill="none" xmlns="http://www.w3.org/2000/svg"><path d="M266.685 208.447c-1.047 0-1.879.81-2.014 1.966L261 238.309l3.671 27.416c.135 1.156.967 1.961 2.014 1.961 1.015 0 1.841-.8 2.003-1.95v-.005.005l4.351-27.427-4.351-27.902c-.157-1.15-.994-1.96-2.003-1.96zm20.645-15.242c-.173-1.199-1.032-2.025-2.09-2.025-1.063 0-1.943.853-2.089 2.025 0 .011-4.934 45.104-4.934 45.104l4.934 44.105c.14 1.183 1.02 2.037 2.089 2.037 1.053 0 1.911-.832 2.084-2.026l5.615-44.116-5.609-45.104zm77.763-41.605c-2.025 0-3.698 1.659-3.796 3.765l-3.93 82.982 3.93 53.627c.103 2.096 1.771 3.749 3.796 3.749 2.013 0 3.682-1.658 3.8-3.759v.016l4.444-53.633-4.444-82.982c-.118-2.106-1.787-3.765-3.8-3.765zm-40.248 28.842c-1.555 0-2.823 1.242-2.947 2.901l-4.427 54.983 4.427 53.195c.118 1.647 1.392 2.889 2.947 2.889 1.539 0 2.808-1.242 2.943-2.889l5.031-53.195-5.031-54.994c-.135-1.648-1.404-2.89-2.943-2.89zm81.148 115.275c2.511 0 4.552-2.025 4.654-4.618l3.855-52.725-3.849-110.479c-.103-2.592-2.144-4.618-4.654-4.618-2.532 0-4.578 2.031-4.659 4.624l-3.418 110.468 3.418 52.747c.081 2.571 2.127 4.601 4.653 4.601zm83.735.249c3.455 0 6.305-2.847 6.37-6.346l2.689-51.213-2.689-127.595c-.059-3.495-2.915-6.347-6.37-6.347-3.461 0-6.317 2.847-6.371 6.352l-2.402 127.546c0 .081 2.402 51.289 2.402 51.289.054 3.467 2.915 6.314 6.371 6.314zm-42.186-.2c3.007 0 5.431-2.414 5.512-5.493v.038l3.272-51.926-3.277-111.278c-.081-3.079-2.505-5.488-5.512-5.488-3.029 0-5.453 2.409-5.518 5.488l-2.91 111.283 2.915 51.915c.065 3.047 2.489 5.461 5.518 5.461zm-102.651-.486c1.787 0 3.234-1.431 3.369-3.316l4.74-53.638-4.74-51.024c-.13-1.885-1.577-3.306-3.369-3.306-1.814 0-3.261 1.431-3.374 3.327l-4.174 51.003 4.174 53.632c.118 1.891 1.56 3.322 3.374 3.322zm-39.929-2.938c1.306 0 2.364-1.032 2.516-2.458l5.323-51.569-5.318-53.514c-.157-1.431-1.215-2.463-2.521-2.463-1.323 0-2.381 1.037-2.516 2.463l-4.686 53.514 4.686 51.558c.13 1.432 1.188 2.469 2.516 2.469zm163.592-167.088c-3.266 0-5.885 2.598-5.95 5.925l-2.656 107.217 2.656 51.591c.065 3.284 2.678 5.882 5.95 5.882 3.261 0 5.863-2.593 5.938-5.92v.043l2.98-51.591-2.98-107.233c-.075-3.316-2.677-5.914-5.938-5.914zm-83.087 170.571c2.257 0 4.12-1.841 4.228-4.191l4.146-53.271-4.146-101.961c-.114-2.355-1.971-4.191-4.228-4.191-2.278 0-4.135 1.841-4.232 4.191l-3.671 101.961 3.676 53.293c.092 2.328 1.949 4.169 4.227 4.169zm46.3-5.028v-.027l3.563-52.39-3.563-114.201c-.086-2.835-2.322-5.061-5.08-5.061-2.775 0-5.01 2.22-5.086 5.061l-3.164 114.195 3.17 52.418c.075 2.808 2.31 5.028 5.08 5.028 2.764 0 4.988-2.22 5.08-5.045v.022zM510.81 92.475c-3.709 0-6.754 3.046-6.808 6.789l-2.786 139.159 2.791 50.505c.049 3.689 3.094 6.73 6.803 6.73 3.698 0 6.743-3.041 6.797-6.784v.06l3.028-50.511-3.028-139.17c-.054-3.732-3.099-6.778-6.797-6.778z" fill="url(#prefix__paint0_linear)"/><path fill-rule="evenodd" clip-rule="evenodd" d="M669.628 190.191a14.999 14.999 0 01-7.194-11.525C658.197 130.646 617.935 93 568.873 93c-10.61 0-21.024 1.855-30.441 5.05V281.02l18.331.013a1451817.588 1451817.588 0 00144.492.08c25.807 0 46.745-20.937 46.745-46.778 0-25.845-20.936-46.783-46.74-46.783a46.62 46.62 0 00-18.082 3.629 14.998 14.998 0 01-13.55-.989zm-146.196 98.516c.048 3.781 2.98 6.929 6.667 7.302.157.016 170.054.103 171.156.103 34.098 0 61.745-27.659 61.745-61.778 0-34.118-27.641-61.783-61.74-61.783a62.04 62.04 0 00-9.22.687 61.543 61.543 0 00-14.664 4.109 108.766 108.766 0 00-2.42-15.157C663.718 113.947 620.517 78 568.873 78c-13.929 0-27.507 2.744-39.497 7.383-4.659 1.804-5.901 3.662-5.944 7.265v196.059zm10.749-189.07a.73.73 0 01.103-.053.83.83 0 01-.103.053z" fill="url(#prefix__paint1_linear)"/><defs><linearGradient id="prefix__paint0_linear" x1="390.818" y1="92.475" x2="390.818" y2="295.929" gradientUnits="userSpaceOnUse"><stop stop-color="#86D9EC"/><stop offset="1" stop-color="#19E2BE"/></linearGradient><linearGradient id="prefix__paint1_linear" x1="643.216" y1="78" x2="643.216" y2="296.073" gradientUnits="userSpaceOnUse"><stop stop-color="#86D9EC"/><stop offset="1" stop-color="#19E2BE"/></linearGradient></defs></svg>