<svg width="600" height="600" viewBox="0 0 600 600" fill="none" xmlns="http://www.w3.org/2000/svg">
<path d="M54.6849 321.447C53.6375 321.447 52.8061 322.257 52.6711 323.413L49 351.309L52.6711 378.725C52.8061 379.881 53.6375 380.686 54.6849 380.686C55.6998 380.686 56.5258 379.886 56.6878 378.736V378.731C56.6878 378.731 56.6878 378.731 56.6878 378.736L61.0391 351.309L56.6878 323.407C56.5312 322.257 55.6944 321.447 54.6849 321.447ZM75.3296 306.205C75.1568 305.006 74.2984 304.18 73.2403 304.18C72.1767 304.18 71.2967 305.033 71.1509 306.205C71.1509 306.216 66.2165 351.309 66.2165 351.309L71.1509 395.414C71.2913 396.597 72.1713 397.451 73.2403 397.451C74.293 397.451 75.1514 396.619 75.3242 395.425L80.9388 351.309L75.3296 306.205ZM153.093 264.6C151.068 264.6 149.395 266.259 149.297 268.365L145.367 351.347L149.297 404.974C149.4 407.07 151.068 408.723 153.093 408.723C155.106 408.723 156.775 407.065 156.893 404.964V404.98L161.337 351.347L156.893 268.365C156.775 266.259 155.106 264.6 153.093 264.6ZM112.845 293.442C111.29 293.442 110.022 294.684 109.898 296.343L105.471 351.325L109.898 404.521C110.016 406.168 111.29 407.41 112.845 407.41C114.384 407.41 115.653 406.168 115.788 404.521L120.819 351.325L115.788 296.332C115.653 294.684 114.384 293.442 112.845 293.442ZM193.993 408.717C196.504 408.717 198.545 406.692 198.647 404.099L202.502 351.374L198.653 240.895C198.55 238.303 196.509 236.277 193.999 236.277C191.467 236.277 189.421 238.308 189.34 240.901C189.34 240.906 185.922 351.369 185.922 351.369L189.34 404.116C189.421 406.687 191.467 408.717 193.993 408.717ZM277.728 408.966C281.183 408.966 284.033 406.119 284.098 402.62L286.787 351.407L284.098 223.812C284.039 220.317 281.183 217.465 277.728 217.465C274.267 217.465 271.411 220.312 271.357 223.817L268.955 351.363C268.955 351.444 271.357 402.652 271.357 402.652C271.411 406.119 274.272 408.966 277.728 408.966ZM235.542 408.766C238.549 408.766 240.973 406.352 241.054 403.273V403.311L244.326 351.385L241.049 240.107C240.968 237.028 238.544 234.619 235.537 234.619C232.508 234.619 230.084 237.028 230.019 240.107L227.109 351.39L230.024 403.305C230.089 406.352 232.513 408.766 235.542 408.766ZM132.891 408.28C134.678 408.28 136.125 406.849 136.26 404.964L141 351.325L136.26 300.302C136.13 298.417 134.683 296.996 132.891 296.996C131.077 296.996 129.63 298.427 129.517 300.323L125.343 351.325L129.517 404.958C129.635 406.849 131.077 408.28 132.891 408.28ZM92.9618 405.342C94.2683 405.342 95.3264 404.31 95.4776 402.884L100.801 351.315L95.483 297.801C95.3264 296.37 94.2683 295.338 92.9618 295.338C91.6391 295.338 90.5809 296.375 90.446 297.801C90.446 297.806 85.7599 351.315 85.7599 351.315L90.446 402.873C90.5755 404.305 91.6337 405.342 92.9618 405.342ZM256.554 238.254C253.288 238.254 250.669 240.852 250.604 244.179L247.948 351.396L250.604 402.987C250.669 406.271 253.282 408.869 256.554 408.869C259.815 408.869 262.417 406.276 262.492 402.949V402.992L265.472 351.401L262.492 244.168C262.417 240.852 259.815 238.254 256.554 238.254ZM173.467 408.825C175.724 408.825 177.587 406.984 177.695 404.634L181.841 351.363L177.695 249.402C177.581 247.047 175.724 245.211 173.467 245.211C171.189 245.211 169.332 247.052 169.235 249.402C169.235 249.407 165.564 351.363 165.564 351.363L169.24 404.656C169.332 406.984 171.189 408.825 173.467 408.825ZM219.767 403.797V403.77L223.33 351.38L219.767 237.179C219.681 234.344 217.445 232.118 214.687 232.118C211.912 232.118 209.677 234.338 209.601 237.179L206.437 351.374L209.607 403.792C209.682 406.6 211.917 408.82 214.687 408.82C217.451 408.82 219.675 406.6 219.767 403.775V403.797ZM298.81 205.475C295.101 205.475 292.056 208.521 292.002 212.264L289.216 351.423L292.007 401.928C292.056 405.617 295.101 408.658 298.81 408.658C302.508 408.658 305.553 405.617 305.607 401.874V401.934L308.635 351.423L305.607 212.253C305.553 208.521 302.508 205.475 298.81 205.475Z" fill="url(#paint0_linear)"/>
<path fill-rule="evenodd" clip-rule="evenodd" d="M457.628 303.191C453.528 300.718 450.855 296.436 450.434 291.666C446.197 243.646 405.935 206 356.873 206C346.263 206 335.849 207.855 326.432 211.051V394.019C331.027 394.023 337.316 394.027 344.763 394.032C360.73 394.042 382.015 394.055 403.331 394.066C445.967 394.09 488.71 394.112 489.255 394.112C515.062 394.112 536 373.175 536 347.334C536 321.489 515.064 300.551 489.26 300.551C482.84 300.551 476.738 301.848 471.178 304.18C466.762 306.032 461.728 305.665 457.628 303.191ZM311.432 401.707C311.48 405.488 314.412 408.636 318.099 409.009C318.256 409.025 488.153 409.112 489.255 409.112C523.353 409.112 551 381.453 551 347.334C551 313.216 523.359 285.551 489.26 285.551C486.128 285.551 483.049 285.786 480.04 286.238C474.922 287.007 470.007 288.405 465.376 290.347C464.921 285.183 464.106 280.122 462.956 275.19C451.718 226.947 408.517 191 356.873 191C342.944 191 329.366 193.744 317.376 198.383C312.717 200.187 311.475 202.045 311.432 205.648V401.707ZM322.181 212.637C322.179 212.637 322.211 212.619 322.284 212.584C322.219 212.621 322.183 212.638 322.181 212.637Z" fill="url(#paint1_linear)"/>
<defs>
<linearGradient id="paint0_linear" x1="178.818" y1="205.475" x2="178.818" y2="408.929" gradientUnits="userSpaceOnUse">
<stop stop-color="#86D9EC"/>
<stop offset="0.0001" stop-color="#00D1FF"/>
<stop offset="1" stop-color="#0044C8"/>
</linearGradient>
<linearGradient id="paint1_linear" x1="431.216" y1="191" x2="431.216" y2="409.073" gradientUnits="userSpaceOnUse">
<stop stop-color="#86D9EC"/>
<stop offset="0.0001" stop-color="#00D1FF"/>
<stop offset="1" stop-color="#0044C8"/>
</linearGradient>
</defs>
</svg>
