<?xml version="1.0" standalone="no"?>
<!DOCTYPE svg PUBLIC "-//W3C//DTD SVG 20010904//EN"
 "http://www.w3.org/TR/2001/REC-SVG-20010904/DTD/svg10.dtd">
<svg version="1.0" xmlns="http://www.w3.org/2000/svg"
 width="700.000000pt" height="700.000000pt" viewBox="0 0 700.000000 700.000000"
 preserveAspectRatio="xMidYMid meet">
<metadata>
Created by potrace 1.11, written by Peter Selinger 2001-2013
</metadata>
<g transform="translate(0.000000,700.000000) scale(0.100000,-0.100000)"
fill="#000000" stroke="none">
<path d="M4150 5009 c-143 -15 -253 -40 -378 -85 -126 -45 -112 136 -112
-1473 0 -1370 0 -1397 20 -1428 11 -19 31 -36 47 -40 33 -8 2481 -9 2533 -1
147 24 277 79 394 168 150 113 246 248 306 429 29 89 35 136 34 281 -1 111 -4
136 -32 225 -92 292 -314 506 -607 586 -117 32 -306 32 -430 0 -49 -13 -95
-27 -102 -33 -14 -11 -19 5 -28 82 -14 128 -77 326 -149 468 -37 73 -138 228
-181 276 -162 185 -303 296 -501 395 -145 72 -279 114 -474 146 -54 10 -267
12 -340 4z m325 -214 c202 -33 341 -86 533 -200 99 -59 250 -202 336 -318 107
-144 200 -350 231 -507 5 -27 16 -94 19 -125 10 -77 21 -107 53 -145 71 -82
142 -95 280 -48 168 57 335 46 502 -34 165 -79 307 -259 345 -438 22 -101 14
-248 -17 -346 -74 -225 -267 -394 -497 -436 -61 -11 -287 -14 -1225 -12 -632
1 -1153 2 -1157 3 -5 0 -8 574 -8 1275 l0 1275 53 14 c62 18 198 45 247 49 56
5 262 1 305 -7z"/>
<path d="M3436 4801 c-49 -29 -46 4 -61 -721 -3 -146 -8 -391 -11 -545 -4
-154 -7 -422 -8 -595 -1 -280 2 -382 19 -630 2 -36 7 -110 11 -165 7 -114 12
-128 56 -151 25 -13 38 -14 67 -5 66 19 68 30 86 376 2 33 7 114 12 180 12
177 9 537 -12 1415 -2 69 -6 270 -10 448 -3 178 -10 333 -14 345 -20 52 -89
76 -135 48z"/>
<path d="M3153 4635 c-17 -7 -36 -22 -42 -32 -5 -11 -12 -135 -15 -279 -17
-803 -20 -1005 -20 -1364 -1 -217 2 -458 7 -535 4 -77 10 -196 13 -265 5 -117
7 -127 32 -152 34 -37 89 -38 122 -3 25 27 26 32 35 200 4 66 8 145 10 175 23
380 23 352 0 1375 -2 99 -7 324 -10 499 -6 333 -11 363 -52 381 -32 14 -47 14
-80 0z"/>
<path d="M2260 4420 c-11 -11 -20 -34 -21 -52 0 -18 -2 -85 -4 -148 -2 -63 -6
-223 -10 -355 -3 -132 -8 -296 -10 -365 -22 -755 -22 -790 0 -1060 3 -30 7
-95 10 -145 16 -276 15 -269 37 -292 41 -44 117 -15 119 45 0 15 2 38 4 52 1
14 6 79 10 145 3 66 8 136 10 155 22 236 25 475 11 895 -9 269 -11 336 -21
650 -3 121 -8 265 -10 320 -2 55 -4 108 -5 118 0 27 -37 57 -70 57 -17 0 -39
-9 -50 -20z"/>
<path d="M2554 4387 c-32 -27 -29 -1 -39 -402 -4 -143 -8 -316 -10 -385 -23
-827 -23 -903 0 -1210 2 -25 6 -104 10 -176 3 -72 8 -139 10 -150 2 -10 4 -24
4 -31 1 -20 43 -53 67 -53 64 0 80 32 88 175 6 104 11 178 21 325 13 189 18
269 18 305 0 49 -12 460 -18 650 -7 193 -14 431 -20 680 -3 116 -10 224 -16
241 -9 29 -43 54 -74 54 -8 0 -26 -11 -41 -23z"/>
<path d="M1993 4378 c-37 -18 -35 0 -48 -428 -3 -118 -8 -264 -10 -325 -25
-704 -25 -971 0 -1240 2 -22 6 -92 10 -155 10 -167 13 -197 25 -220 22 -42 92
-33 109 13 5 12 11 69 15 127 4 58 9 128 11 155 3 28 7 79 10 115 2 36 8 108
12 160 12 153 9 438 -12 956 -8 206 -15 390 -21 582 -3 106 -7 201 -9 210 -2
9 -4 20 -4 24 -1 7 -56 39 -63 37 -2 0 -13 -5 -25 -11z"/>
<path d="M2843 4336 c-29 -24 -30 -29 -33 -113 -3 -113 -7 -258 -14 -563 -3
-135 -9 -344 -12 -465 -9 -310 -9 -428 0 -600 4 -82 9 -186 11 -230 16 -366
21 -385 104 -385 29 0 65 31 74 65 3 11 9 76 12 145 4 69 8 150 10 180 25 409
25 431 0 1265 -1 55 -6 214 -10 354 -4 139 -8 269 -10 289 -7 71 -79 103 -132
58z"/>
<path d="M1696 4244 c-9 -8 -16 -23 -17 -32 -3 -47 -7 -135 -13 -317 -4 -110
-9 -240 -11 -290 -2 -49 -7 -173 -10 -275 -4 -102 -8 -216 -10 -255 -6 -100
-6 -405 -1 -438 3 -16 7 -81 11 -145 3 -64 8 -133 10 -152 3 -19 7 -78 10
-130 12 -202 21 -230 71 -230 21 0 52 22 55 38 4 19 7 56 13 147 4 55 9 118
11 140 3 22 7 69 9 105 3 36 9 106 13 155 9 104 9 429 0 625 -4 74 -9 203 -12
285 -3 83 -8 184 -10 225 -2 41 -7 156 -10 255 -4 99 -8 194 -10 210 -2 17 -3
38 -4 47 -1 24 -29 48 -56 48 -13 0 -31 -7 -39 -16z"/>
<path d="M1416 3974 c-9 -8 -17 -25 -17 -37 -1 -12 -2 -42 -4 -67 -1 -25 -5
-110 -9 -190 -6 -134 -8 -191 -21 -435 -20 -396 -21 -461 -11 -605 4 -58 9
-129 11 -158 4 -66 14 -188 20 -267 3 -33 8 -91 10 -130 6 -82 27 -112 68
-101 36 9 42 27 51 167 4 52 9 110 11 129 2 19 6 71 10 115 3 44 8 100 10 125
24 259 24 267 0 670 -5 87 -16 290 -20 365 -11 234 -17 335 -21 370 -6 59 -53
85 -88 49z"/>
<path d="M866 3574 c-9 -8 -16 -23 -17 -32 -1 -9 -2 -28 -3 -42 -2 -14 -6 -63
-10 -110 -15 -194 -17 -217 -21 -255 -26 -250 -26 -470 0 -695 2 -19 7 -73 10
-120 3 -47 8 -101 10 -120 2 -19 7 -66 10 -105 7 -74 17 -95 45 -95 35 0 41
21 56 185 3 39 7 86 9 105 2 19 7 69 10 110 3 41 8 85 10 97 25 150 25 343 0
583 -2 19 -7 69 -11 110 -3 41 -8 86 -9 100 -1 14 -5 61 -9 105 -13 164 -22
195 -52 195 -7 0 -20 -7 -28 -16z"/>
<path d="M586 3551 c-7 -10 -12 -50 -21 -161 -3 -41 -8 -95 -10 -120 -2 -25
-7 -79 -10 -120 -8 -90 -11 -130 -21 -235 -10 -103 -10 -172 0 -265 12 -120
25 -270 31 -340 3 -36 8 -86 10 -112 18 -174 17 -168 44 -168 36 0 39 16 67
300 2 25 6 65 9 90 3 25 8 70 10 100 3 30 9 89 14 130 9 72 7 214 -4 310 -2
25 -7 72 -10 105 -3 33 -8 76 -10 95 -2 19 -7 67 -10 105 -4 39 -8 81 -10 95
-2 14 -7 59 -10 100 -4 41 -12 81 -17 88 -12 14 -44 16 -52 3z"/>
<path d="M1139 3524 c-15 -19 -16 -23 -24 -129 -4 -44 -8 -96 -10 -115 -2 -19
-6 -73 -10 -120 -4 -47 -8 -105 -10 -130 -22 -263 -22 -244 0 -511 1 -20 6
-81 10 -135 4 -54 8 -110 10 -124 2 -14 6 -69 10 -124 8 -127 16 -146 55 -146
38 0 46 18 55 130 11 135 23 280 30 345 2 22 6 69 9 105 3 36 9 97 12 135 8
82 8 75 1 145 -3 30 -9 89 -12 130 -4 41 -8 86 -10 100 -2 14 -7 65 -10 114
-4 48 -8 96 -10 105 -1 9 -6 52 -10 97 -3 44 -7 87 -9 96 -3 24 -26 48 -46 48
-10 0 -24 -7 -31 -16z"/>
<path d="M322 3432 c-7 -5 -14 -24 -16 -43 -2 -19 -7 -65 -10 -104 -4 -38 -9
-86 -11 -105 -11 -85 -25 -210 -32 -270 -12 -102 -8 -227 11 -350 5 -30 13
-103 22 -190 4 -36 12 -101 18 -145 10 -70 14 -80 33 -83 28 -4 28 -1 53 202
11 92 23 182 25 200 3 17 7 47 9 66 14 110 19 157 19 170 1 14 -12 139 -18
170 -1 8 -6 42 -9 75 -4 33 -9 71 -11 85 -2 14 -11 88 -21 165 -19 157 -27
179 -62 157z"/>
<path d="M62 3188 c-10 -13 -17 -51 -27 -143 -3 -27 -8 -61 -10 -75 -5 -26
-11 -78 -20 -147 -4 -35 11 -175 41 -385 13 -91 57 -86 68 7 4 28 9 57 11 65
2 8 6 37 10 64 3 27 8 52 10 55 2 3 6 31 10 61 4 30 8 64 10 75 1 11 -8 88
-21 170 -13 83 -26 168 -30 190 -10 66 -29 90 -52 63z"/>
</g>
</svg>
